<svg xmlns="http://www.w3.org/2000/svg" viewBox="0 0 32 32">
  <rect width="32" height="32" rx="6" fill="#0e0b18"/>
  <g fill="#c084e8">
    <!-- center petal -->
    <path d="M16 2.5
             C14 5 12.5 8.5 14 12
             C14.5 13.2 15.3 14 16 14.5
             C16.7 14 17.5 13.2 18 12
             C19.5 8.5 18 5 16 2.5Z"/>
    <!-- left petal -->
    <path d="M14.5 13
             C12.5 11.5 8.5 11.5 6 13.5
             C4.2 15 4.5 17.5 6.5 18.5
             C8.5 19.5 11.5 18.5 13.5 16.5
             C14.5 15.5 14.8 14 14.5 13Z"/>
    <!-- right petal -->
    <path d="M17.5 13
             C19.5 11.5 23.5 11.5 26 13.5
             C27.8 15 27.5 17.5 25.5 18.5
             C23.5 19.5 20.5 18.5 18.5 16.5
             C17.5 15.5 17.2 14 17.5 13Z"/>
    <!-- band -->
    <rect x="13" y="16" width="6" height="2.8" rx="1.4"/>
    <!-- stem -->
    <rect x="14.8" y="18.8" width="2.4" height="3.2"/>
    <!-- base -->
    <path d="M12.5 22 C12.5 26.5 14.2 29 16 29 C17.8 29 19.5 26.5 19.5 22Z"/>
  </g>
</svg>
