<svg xmlns="http://www.w3.org/2000/svg" viewBox="0 0 32 32">
  <rect width="32" height="32" fill="#080808"/>
  <!-- fleur-de-lis: center petal, left petal, right petal, band, stem -->
  <g fill="#5b1f7c">
    <!-- center petal -->
    <path d="M16 3 C14 6 13 9 14.5 12 C15 13 15.5 13.5 16 14 C16.5 13.5 17 13 17.5 12 C19 9 18 6 16 3Z"/>
    <!-- left petal -->
    <path d="M16 11 C14 10 11 10 9 12 C8 13.5 8.5 15 10 15.5 C12 16 14 15 15.5 14Z"/>
    <!-- right petal -->
    <path d="M16 11 C18 10 21 10 23 12 C24 13.5 23.5 15 22 15.5 C20 16 18 15 16.5 14Z"/>
    <!-- band -->
    <rect x="13" y="15.5" width="6" height="2.5" rx="1"/>
    <!-- stem -->
    <rect x="15" y="18" width="2" height="5"/>
    <!-- base curl -->
    <path d="M12 23 C12 26.5 14 28 16 28 C18 28 20 26.5 20 23Z"/>
  </g>
</svg>
